<svg width="22" height="28" viewBox="0 0 22 28" fill="none" xmlns="http://www.w3.org/2000/svg">
<path d="M21.2143 1.75001H15.3214L14.8598 0.727354C14.762 0.508721 14.6114 0.324811 14.4249 0.196315C14.2384 0.067819 14.0233 -0.000165592 13.804 9.58821e-06H8.19107C7.97224 -0.000927238 7.7576 0.0668038 7.57173 0.195443C7.38587 0.324082 7.23631 0.508426 7.14018 0.727354L6.67857 1.75001H0.785714C0.57733 1.75001 0.37748 1.8422 0.23013 2.00629C0.0827804 2.17039 0 2.39295 0 2.62501L0 4.37501C0 4.60707 0.0827804 4.82963 0.23013 4.99373C0.37748 5.15782 0.57733 5.25001 0.785714 5.25001H21.2143C21.4227 5.25001 21.6225 5.15782 21.7699 4.99373C21.9172 4.82963 22 4.60707 22 4.37501V2.62501C22 2.39295 21.9172 2.17039 21.7699 2.00629C21.6225 1.8422 21.4227 1.75001 21.2143 1.75001ZM2.6125 25.5391C2.64997 26.2055 2.9141 26.831 3.3511 27.2882C3.7881 27.7454 4.36513 27.9999 4.96473 28H17.0353C17.6349 27.9999 18.2119 27.7454 18.6489 27.2882C19.0859 26.831 19.35 26.2055 19.3875 25.5391L20.4286 7.00001H1.57143L2.6125 25.5391Z" fill="#3E3E3E"/>
</svg>
